<svg width="200" height="200" viewBox="0 0 720 720" fill="none" xmlns="http://www.w3.org/2000/svg">
<rect width="720" height="720" fill="#222222"/>
<line x1="540" y1="720" x2="540" y2="-1" stroke="#333333" stroke-width="20"/>
<line x1="180" y1="720" x2="180" stroke="#333333" stroke-width="20"/>
<line y1="180" x2="720" y2="180" stroke="#333333" stroke-width="20"/>
<line y1="540" x2="720" y2="542" stroke="#333333" stroke-width="20"/>
<line x1="-0.00342241" y1="360" x2="719.997" y2="360" stroke="#555555" stroke-width="40"/>
<line x1="360" y1="720" x2="360" stroke="#555555" stroke-width="40"/>
<path d="M284.93 289H243.035V139C243.035 136.07 242.449 133.336 241.277 130.797C240.203 128.258 238.689 126.061 236.736 124.205C234.881 122.252 232.684 120.738 230.145 119.664C227.605 118.59 224.871 118.053 221.941 118.053C219.012 118.053 216.277 118.59 213.738 119.664C211.199 120.738 208.953 122.252 207 124.205C205.145 126.061 203.68 128.258 202.605 130.797C201.531 133.336 200.994 136.07 200.994 139V289H158.953V139C158.953 136.07 158.416 133.336 157.342 130.797C156.268 128.258 154.754 126.061 152.801 124.205C150.945 122.252 148.748 120.738 146.209 119.664C143.67 118.59 140.936 118.053 138.006 118.053C135.076 118.053 132.342 118.59 129.803 119.664C127.264 120.738 125.018 122.252 123.064 124.205C121.209 126.061 119.744 128.258 118.67 130.797C117.596 133.336 117.059 136.07 117.059 139V289H75.0176V139C75.0176 130.309 76.6289 122.154 79.8516 114.537C83.1719 106.822 87.6641 100.133 93.3281 94.4688C99.0898 88.707 105.779 84.2148 113.396 80.9922C121.111 77.6719 129.314 76.0117 138.006 76.0117C145.818 76.0117 153.338 77.4277 160.564 80.2598C167.791 82.9941 174.285 86.998 180.047 92.2715C185.809 86.998 192.254 82.9941 199.383 80.2598C206.609 77.4277 214.129 76.0117 221.941 76.0117C230.633 76.0117 238.787 77.6719 246.404 80.9922C254.119 84.2148 260.809 88.707 266.473 94.4688C272.234 100.133 276.727 106.822 279.949 114.537C283.27 122.154 284.93 130.309 284.93 139V289Z" fill="white"/>
<path d="M455.178 141.93C455.178 133.238 456.838 125.084 460.158 117.467C463.479 109.85 467.971 103.209 473.635 97.5449C479.396 91.7832 486.086 87.2422 493.703 83.9219C501.32 80.6016 509.475 78.9414 518.166 78.9414H614.553V120.982H518.166C515.236 120.982 512.502 121.52 509.963 122.594C507.424 123.668 505.178 125.182 503.225 127.135C501.369 128.99 499.904 131.188 498.83 133.727C497.756 136.266 497.219 139 497.219 141.93C497.219 144.859 497.756 147.643 498.83 150.279C499.904 152.818 501.369 155.064 503.225 157.018C505.178 158.873 507.424 160.338 509.963 161.412C512.502 162.486 515.236 163.023 518.166 163.023H560.207C568.898 163.023 577.053 164.684 584.67 168.004C592.385 171.227 599.074 175.719 604.738 181.48C610.5 187.145 614.992 193.834 618.215 201.549C621.535 209.166 623.195 217.32 623.195 226.012C623.195 234.703 621.535 242.857 618.215 250.475C614.992 258.092 610.5 264.781 604.738 270.543C599.074 276.207 592.385 280.699 584.67 284.02C577.053 287.34 568.898 289 560.207 289H466.896V246.959H560.207C563.137 246.959 565.871 246.422 568.41 245.348C570.949 244.273 573.146 242.809 575.002 240.953C576.955 239 578.469 236.754 579.543 234.215C580.617 231.676 581.154 228.941 581.154 226.012C581.154 223.082 580.617 220.348 579.543 217.809C578.469 215.27 576.955 213.072 575.002 211.217C573.146 209.264 570.949 207.75 568.41 206.676C565.871 205.602 563.137 205.064 560.207 205.064H518.166C509.475 205.064 501.32 203.404 493.703 200.084C486.086 196.764 479.396 192.271 473.635 186.607C467.971 180.846 463.479 174.156 460.158 166.539C456.838 158.824 455.178 150.621 455.178 141.93Z" fill="white"/>
<path d="M536.281 538.125L600.031 595.938L568.938 630.625L472.531 540L566.75 442.031L600.344 473.75L536.281 538.125Z" fill="white"/>
<path d="M257.207 622.467C247.441 630.865 236.504 637.311 224.395 641.803C212.285 646.295 199.736 648.541 186.748 648.541C176.787 648.541 167.168 647.223 157.891 644.586C148.711 642.047 140.068 638.434 131.963 633.746C123.955 628.961 116.631 623.248 109.99 616.607C103.35 609.967 97.6367 602.643 92.8516 594.635C88.1641 586.529 84.502 577.887 81.8652 568.707C79.3262 559.43 78.0566 549.811 78.0566 539.85C78.0566 529.889 79.3262 520.27 81.8652 510.992C84.502 501.715 88.1641 493.072 92.8516 485.064C97.6367 476.959 103.35 469.586 109.99 462.945C116.631 456.305 123.955 450.641 131.963 445.953C140.068 441.168 148.711 437.506 157.891 434.967C167.168 432.33 176.787 431.012 186.748 431.012C199.736 431.012 212.285 433.258 224.395 437.75C236.504 442.145 247.441 448.59 257.207 457.086L234.941 493.707C228.789 487.066 221.514 481.988 213.115 478.473C204.717 474.859 195.928 473.053 186.748 473.053C177.471 473.053 168.779 474.811 160.674 478.326C152.568 481.842 145.488 486.627 139.434 492.682C133.379 498.639 128.594 505.719 125.078 513.922C121.562 522.027 119.805 530.67 119.805 539.85C119.805 549.029 121.562 557.672 125.078 565.777C128.594 573.785 133.379 580.816 139.434 586.871C145.488 592.926 152.568 597.711 160.674 601.227C168.779 604.742 177.471 606.5 186.748 606.5C195.928 606.5 204.717 604.742 213.115 601.227C221.514 597.613 228.789 592.486 234.941 585.846L257.207 622.467Z" fill="white"/>
<rect x="15" y="15" width="690" height="690" stroke="#555555" stroke-width="30"/>
</svg>
